<svg width="51" height="34" viewBox="0 0 51 34" fill="none" xmlns="http://www.w3.org/2000/svg">
<path d="M50.6129 6.02814C49.5623 1.62706 46.1999 -0.658993 41.8385 0.166742C39.1417 0.674578 36.6555 2.00084 34.7015 3.97401C33.6627 5.01125 32.7428 6.1624 31.6763 7.35419C31.5137 6.72777 31.3908 6.21528 31.244 5.70279C30.0903 1.68803 27.3584 -0.276611 23.2784 0.0569071C19.8487 0.32537 17.1724 2.14765 14.833 4.59232C14.4366 4.99907 14.04 5.46277 13.3779 6.19085C13.5405 4.84452 13.6991 3.90895 13.7744 2.96937C13.8775 1.53757 13.4809 1.06162 12.0972 1.00065C10.5112 0.935518 8.90142 0.972129 7.30754 0.972129C4.98803 0.972129 4.57961 1.35451 4.16727 3.72181C4.1276 3.97 4.10777 4.20994 4.0681 4.45397C3.1562 10.3331 2.25611 16.2107 1.36796 22.087C0.919939 25.0238 0.448103 27.9607 0.0595149 30.9138C-0.174378 32.5408 0.253808 33.0574 1.8319 33.1224C3.60821 33.1916 5.40036 33.1876 7.15285 33.1224C8.69526 33.0695 9.20676 32.5408 9.47634 30.9138C9.62308 30.0189 9.74599 29.1199 9.87282 28.217C10.4839 23.5763 11.9163 19.0893 14.0995 14.9769C15.0194 13.2685 16.0582 11.6374 17.5887 10.4253C18.5839 9.64016 19.6703 8.79824 20.9867 9.52223C22.303 10.2463 22.1484 11.674 21.9739 12.939C21.5299 16.1931 21.0104 19.4187 20.5188 22.6606C20.0985 25.4184 19.6386 28.1722 19.2818 30.9382C19.0795 32.5408 19.5434 33.0695 21.1175 33.1265C22.8886 33.2079 24.6622 33.2079 26.4385 33.1265C27.973 33.0574 28.3933 32.6221 28.6788 31.0927C28.9444 29.6935 29.1109 28.3227 29.3409 26.9479C30.1939 21.5886 32.315 16.5258 35.5183 12.2028C36.1437 11.4018 36.8659 10.6856 37.6673 10.0713C38.4127 9.48562 39.2533 8.96904 40.2961 9.48562C41.3389 10.0022 41.2993 11.0354 41.2993 12.0116C41.3046 12.6211 41.2662 13.2302 41.1842 13.8339C40.9226 15.5749 40.5538 17.2995 40.3556 19.0445L38.7696 30.0758C38.7141 30.4826 38.6586 30.8527 38.607 31.2392C38.3652 32.9272 38.8132 33.4764 40.4587 33.5455C42.3103 33.6146 44.158 33.6106 46.0096 33.5455C47.5956 33.4966 48.1507 32.9394 48.4322 31.2595C48.46 31.0886 48.4837 30.9138 48.5115 30.7389C48.538 30.6425 48.5592 30.5448 48.575 30.446L48.6384 29.9131L48.8406 28.4447C49.4671 23.592 49.9588 18.6581 50.6685 13.6997C51.0095 11.1493 51.2236 8.59891 50.6129 6.02814Z" fill="#FFD60A"/>
</svg>
